<?xml version="1.0" standalone="no"?>
<!DOCTYPE svg PUBLIC "-//W3C//DTD SVG 20010904//EN"
 "http://www.w3.org/TR/2001/REC-SVG-20010904/DTD/svg10.dtd">
<svg version="1.0" xmlns="http://www.w3.org/2000/svg"
 width="797.000000pt" height="1280.000000pt" viewBox="0 0 797.000000 1280.000000"
 preserveAspectRatio="xMidYMid meet">
<metadata>
Created by potrace 1.15, written by Peter Selinger 2001-2017
</metadata>
<g transform="translate(0.000000,1280.000000) scale(0.100000,-0.100000)"
fill="#FFFFFF" stroke="none">
<path d="M3966 12643 c-11 -203 -66 -2040 -66 -2197 0 -44 -3 -76 -6 -73 -14
14 -185 542 -218 673 -38 151 -68 317 -88 489 -20 170 -17 803 5 1029 17 167
18 220 3 163 -12 -50 -45 -337 -57 -495 -11 -159 -7 -741 7 -892 l6 -65 -35
70 c-187 381 -529 910 -711 1100 l-57 60 52 -75 c180 -260 324 -492 433 -700
304 -579 497 -1131 611 -1747 23 -127 25 -157 25 -447 0 -171 -7 -511 -15
-756 -8 -245 -15 -458 -15 -475 0 -22 -15 3 -59 100 -32 72 -111 236 -175 365
-127 256 -194 420 -250 605 -115 389 -219 947 -280 1510 -46 417 -45 415 -41
95 5 -395 34 -711 105 -1180 17 -106 30 -199 30 -204 0 -5 -40 55 -88 135 -49
79 -126 205 -172 279 -180 292 -185 309 -330 1160 -117 687 -194 1065 -222
1095 -6 6 -7 1 -4 -15 20 -90 134 -817 190 -1216 25 -176 57 -380 71 -453 14
-73 25 -135 23 -136 -2 -2 -39 49 -83 113 -243 352 -535 713 -764 943 -186
187 -247 228 -100 68 132 -145 211 -240 336 -409 113 -152 327 -469 321 -475
-2 -3 -53 18 -114 45 -99 45 -220 86 -674 232 -89 28 -213 78 -290 116 -164
80 -158 78 -140 59 32 -34 231 -140 351 -187 70 -27 221 -82 335 -121 227 -77
365 -133 459 -188 87 -50 181 -127 214 -175 73 -107 491 -837 491 -858 0 -5
-24 5 -52 22 -250 146 -552 260 -902 341 -200 46 -251 64 -366 126 -229 124
-539 373 -730 587 -46 53 -86 93 -88 91 -8 -8 76 -117 174 -227 136 -152 314
-310 499 -443 l80 -58 -50 6 c-261 32 -634 40 -844 18 -189 -20 -194 -30 -11
-24 872 30 1992 -291 2384 -683 70 -69 94 -111 201 -334 238 -500 416 -932
488 -1186 53 -185 54 -199 45 -844 -4 -327 -9 -638 -10 -690 l-3 -95 -43 83
c-139 270 -218 549 -242 862 -12 158 -9 269 21 600 22 249 22 250 10 250 -21
0 -45 -135 -87 -480 -31 -252 -19 -659 23 -830 5 -20 -15 -6 -93 65 -54 50
-139 126 -187 169 -87 78 -155 162 -196 244 -24 48 -47 57 -37 15 11 -44 61
-148 97 -200 18 -26 104 -123 191 -216 221 -236 310 -377 436 -687 87 -215 94
-249 99 -465 2 -104 0 -232 -4 -284 l-8 -94 -51 69 c-77 102 -257 276 -514
496 -193 164 -292 290 -396 503 -276 566 -236 1006 148 1601 109 168 160 260
183 325 19 52 1 50 -26 -3 -12 -24 -81 -128 -154 -233 -155 -222 -217 -319
-275 -435 -48 -95 -110 -260 -110 -293 -1 -17 -2 -19 -9 -7 -5 8 -14 134 -21
280 -10 243 -10 287 10 535 19 243 52 554 65 613 3 12 1 22 -4 22 -20 0 -132
-646 -150 -865 -26 -311 -21 -682 13 -902 6 -46 11 -83 9 -83 -12 0 -223 463
-327 718 -163 398 -189 491 -208 734 -18 242 9 539 73 790 23 90 23 102 4 68
-59 -102 -130 -455 -144 -714 l-7 -121 -36 115 c-78 242 -149 488 -193 668
-53 214 -54 216 -60 211 -12 -13 73 -443 142 -714 25 -99 48 -191 50 -203 4
-17 -14 -3 -63 50 -179 190 -300 339 -412 507 -76 114 -192 331 -192 360 0 6
-4 11 -9 11 -18 0 27 -126 89 -255 71 -144 166 -285 331 -490 208 -258 275
-348 308 -413 16 -32 56 -145 90 -252 33 -107 69 -222 81 -254 11 -33 20 -61
20 -62 0 -2 -19 17 -42 43 -24 25 -87 81 -140 125 -155 125 -277 284 -528 683
-310 493 -607 917 -747 1066 -65 69 -120 115 -128 107 -2 -2 32 -44 76 -93
170 -190 349 -450 599 -870 151 -255 302 -502 364 -598 45 -70 55 -74 -180 81
-551 364 -931 683 -1082 910 -46 68 -55 59 -11 -13 85 -140 235 -314 383 -444
163 -142 230 -195 555 -435 549 -406 712 -546 883 -760 91 -113 146 -218 298
-566 112 -257 172 -381 230 -477 22 -35 37 -63 34 -63 -2 0 -139 101 -303 224
-165 124 -335 249 -378 279 -97 69 -275 250 -374 382 -41 55 -124 172 -184
260 -211 311 -338 461 -493 586 -76 61 -160 115 -167 107 -3 -3 16 -20 43 -38
103 -74 235 -216 344 -370 25 -36 115 -177 200 -315 85 -137 163 -263 173
-279 l19 -29 -44 28 c-265 170 -804 534 -910 615 -178 137 -368 326 -448 449
-67 102 -77 110 -36 28 132 -259 373 -489 959 -912 143 -103 265 -192 270
-197 7 -7 1 -9 -17 -4 -15 3 -105 15 -200 26 -506 59 -730 124 -1013 291 -76
44 -16 -11 80 -74 203 -133 396 -202 775 -276 85 -16 226 -44 313 -61 166 -32
258 -61 325 -104 22 -14 110 -83 195 -153 84 -70 235 -193 335 -272 100 -80
181 -145 179 -145 -1 -1 -234 2 -517 5 -468 6 -523 8 -605 26 -105 24 -196 59
-279 109 -32 19 -61 33 -63 30 -10 -9 125 -100 203 -137 92 -44 198 -71 359
-93 103 -14 185 -20 612 -46 342 -21 492 -63 620 -172 369 -314 875 -790 963
-906 108 -142 200 -370 230 -572 13 -84 3 -1473 -10 -1468 -22 8 -376 399
-465 513 -142 182 -203 342 -385 1021 -137 510 -213 736 -261 780 -25 23 -24
8 5 -68 36 -97 79 -275 150 -618 36 -173 79 -377 96 -454 17 -76 29 -140 28
-141 -2 -2 -66 94 -143 213 -529 818 -755 1121 -972 1308 -72 61 -166 124
-186 124 -5 0 43 -51 105 -112 198 -196 377 -455 613 -888 125 -229 315 -566
408 -723 25 -42 44 -77 41 -77 -3 0 -35 24 -72 54 -37 30 -138 101 -225 160
-242 162 -361 265 -748 643 -741 727 -1313 1416 -1644 1981 -43 73 -80 131
-82 129 -8 -8 68 -172 132 -285 123 -215 380 -592 582 -853 49 -63 92 -120 96
-126 4 -7 -18 -1 -50 13 -32 15 -125 53 -208 86 -177 71 -286 125 -367 186
-33 24 -62 41 -64 39 -8 -7 103 -103 168 -146 35 -23 166 -93 293 -156 267
-133 367 -202 490 -341 44 -49 136 -153 204 -230 68 -76 202 -221 298 -322 96
-100 173 -182 170 -182 -2 0 -96 45 -208 99 -228 111 -459 205 -705 287 -183
61 -415 127 -422 119 -3 -2 8 -9 24 -15 600 -228 1058 -463 1553 -797 187
-126 553 -395 546 -401 -6 -6 -214 18 -295 34 -143 28 -271 77 -502 191 -237
116 -459 210 -558 234 -102 25 -355 12 -374 -20 -2 -3 41 -4 95 -3 223 8 349
-36 723 -252 169 -98 315 -174 428 -221 l67 -28 -167 -42 c-158 -41 -326 -96
-437 -145 -54 -23 -148 -80 -142 -86 2 -2 40 10 85 26 266 97 563 149 891 157
271 7 370 -4 430 -47 93 -68 485 -450 446 -435 -39 14 -302 18 -382 5 -228
-36 -450 -179 -570 -368 -19 -30 -33 -56 -30 -58 3 -3 26 20 52 51 96 112 251
213 390 254 207 61 458 43 642 -45 65 -31 83 -46 192 -172 202 -230 213 -263
212 -682 0 -151 -5 -511 -10 -800 -6 -289 -13 -747 -16 -1017 l-6 -493 260 0
260 0 -5 428 c-3 235 -9 711 -14 1057 -13 880 -5 988 96 1227 68 161 249 423
344 498 55 43 153 87 239 106 194 43 462 -18 661 -152 78 -52 195 -170 225
-227 22 -41 40 -50 25 -13 -79 210 -310 401 -575 478 -70 20 -102 23 -258 23
-97 0 -177 1 -177 2 0 5 197 253 224 281 51 54 382 208 641 299 102 36 208 40
319 14 149 -36 344 -139 501 -266 96 -77 90 -73 76 -47 -23 42 -135 154 -220
218 -89 67 -262 159 -318 170 -18 4 -33 10 -33 14 0 9 312 97 510 144 197 47
396 83 531 96 62 6 115 13 118 15 8 9 -223 5 -334 -5 -142 -13 -357 -45 -515
-76 -276 -56 -719 -179 -935 -259 -49 -19 -91 -32 -93 -30 -5 4 228 269 417
475 170 185 374 391 402 405 49 26 254 92 364 118 61 15 175 36 255 48 230 35
565 31 688 -7 13 -4 13 -2 -3 11 -25 20 -127 52 -213 66 -228 37 -619 25 -871
-27 -32 -7 -26 1 75 98 297 285 692 640 745 669 47 25 127 39 221 39 106 0
162 -9 282 -46 43 -14 81 -22 84 -19 9 9 -123 65 -205 85 -45 12 -125 24 -179
28 l-99 7 125 99 c69 55 200 155 293 224 92 68 167 126 167 128 0 14 -200
-109 -437 -267 -250 -167 -538 -378 -680 -497 -29 -25 -53 -41 -53 -37 0 4 35
71 77 148 42 78 133 257 201 397 68 140 143 282 167 315 91 126 396 390 740
640 134 97 150 110 120 99 -88 -33 -432 -258 -610 -399 -169 -133 -180 -141
-172 -124 3 7 55 131 115 274 147 349 172 401 238 503 68 105 213 252 342 346
50 38 92 70 92 72 0 3 -19 -5 -42 -17 -74 -37 -215 -138 -288 -206 -39 -36
-72 -64 -74 -62 -1 2 71 188 160 414 90 225 161 411 159 414 -7 6 -133 -262
-341 -721 -98 -218 -180 -395 -182 -393 -5 5 128 831 159 984 54 269 127 516
202 684 15 32 21 55 15 51 -16 -10 -81 -155 -131 -294 -90 -250 -143 -475
-257 -1090 -109 -587 -134 -674 -293 -995 -257 -519 -625 -1186 -719 -1299
-16 -20 -105 -102 -196 -182 -92 -81 -257 -232 -367 -338 -110 -105 -235 -225
-279 -266 -310 -296 -994 -1085 -1262 -1455 l-22 -29 -7 210 c-13 354 1 446
95 651 133 286 778 1353 1002 1655 66 89 155 157 293 222 195 93 366 134 675
162 134 12 43 27 -165 27 -208 0 -288 -12 -475 -72 -52 -17 -96 -28 -98 -26
-13 12 329 447 602 764 91 107 164 196 161 199 -8 8 -110 -75 -225 -183 -252
-236 -592 -619 -909 -1025 -46 -60 -71 -86 -68 -70 22 94 49 243 63 350 32
231 22 798 -15 859 -5 7 -11 -72 -15 -176 -19 -519 -91 -884 -247 -1252 -62
-148 -153 -310 -292 -526 -242 -373 -269 -417 -324 -522 l-58 -108 -7 85 c-10
137 -9 583 3 735 17 240 51 425 116 650 75 259 178 482 437 947 211 380 268
473 326 529 122 120 464 315 779 444 l114 46 51 -16 c73 -24 233 -109 355
-190 139 -91 255 -185 374 -302 53 -53 97 -92 97 -86 0 19 -62 103 -144 195
-135 151 -343 325 -494 413 l-75 44 29 11 c149 57 574 172 708 191 122 18 119
32 -4 24 -209 -13 -458 -52 -651 -101 -53 -13 -105 -27 -115 -31 -9 -3 17 34
58 83 41 49 145 187 231 306 262 366 424 553 597 686 107 82 106 82 94 82 -6
0 -60 -32 -120 -72 -185 -122 -330 -274 -749 -783 -111 -136 -269 -296 -338
-343 -25 -18 -106 -53 -179 -78 -152 -53 -323 -124 -385 -160 -24 -14 -43 -22
-43 -19 0 12 361 543 530 780 90 127 241 334 336 461 164 221 175 234 240 272
92 54 215 98 504 182 261 76 425 137 600 225 109 55 224 124 217 132 -2 2 -55
-21 -118 -51 -214 -101 -389 -158 -764 -246 -115 -27 -240 -58 -277 -69 -38
-11 -68 -17 -68 -14 0 16 292 369 465 563 66 74 201 218 300 319 99 102 165
176 148 165 -67 -41 -226 -187 -477 -437 -142 -141 -256 -251 -253 -243 19 50
62 296 102 586 63 460 112 695 180 865 37 90 20 79 -25 -18 -86 -182 -139
-387 -215 -827 -73 -421 -123 -618 -192 -755 -14 -27 -101 -138 -192 -245 -92
-107 -218 -256 -280 -330 -142 -169 -135 -161 -126 -125 70 296 108 575 155
1142 46 547 77 785 145 1130 34 171 117 514 156 646 11 38 18 71 15 74 -19 20
-135 -326 -226 -677 l-12 -44 -38 149 c-21 83 -54 211 -73 285 -42 163 -63
309 -78 535 -5 94 -12 175 -13 180 -2 6 -7 -26 -11 -70 -12 -115 10 -415 40
-555 13 -63 45 -205 71 -315 44 -189 47 -208 47 -345 0 -126 -6 -183 -46 -430
-26 -157 -50 -301 -53 -320 -7 -34 -8 -32 -34 50 -15 47 -60 175 -100 285
-115 318 -178 581 -181 755 -1 64 -2 65 -9 20 -5 -25 -4 -108 1 -185 13 -214
40 -339 154 -718 123 -413 134 -518 85 -847 -77 -526 -165 -868 -281 -1090
-52 -100 -90 -154 -334 -477 -82 -109 -195 -265 -249 -346 -55 -80 -101 -146
-102 -144 -7 7 51 298 90 448 73 286 110 375 365 884 215 428 316 655 291 655
-6 0 -10 -6 -10 -13 0 -28 -123 -254 -241 -442 -157 -250 -250 -408 -328 -555
-33 -63 -61 -110 -61 -105 0 31 64 534 86 670 22 138 63 344 81 410 3 13 2 17
-5 10 -23 -23 -131 -395 -182 -622 -11 -51 -54 -282 -96 -515 -41 -232 -93
-510 -115 -618 -47 -232 -143 -609 -165 -652 -9 -17 -66 -113 -128 -214 -111
-183 -222 -382 -293 -526 -21 -43 -41 -78 -44 -78 -6 0 -30 1016 -29 1254 0
77 7 178 15 225 8 47 28 172 45 276 35 217 115 591 231 1075 87 364 113 435
204 555 99 131 267 283 434 390 82 53 302 160 401 195 91 32 94 40 9 24 -264
-49 -601 -215 -803 -395 l-55 -50 15 53 c261 885 577 1777 839 2368 97 219
108 249 76 210 -57 -69 -255 -489 -490 -1040 -81 -190 -152 -354 -156 -365 -6
-13 -12 68 -16 215 -4 129 -17 386 -29 570 -18 271 -21 382 -16 580 3 135 10
269 14 298 5 28 5 52 2 52 -7 0 -23 -102 -42 -265 -13 -116 -15 -411 -7 -1105
5 -544 0 -583 -146 -985 -195 -541 -419 -1267 -538 -1745 l-14 -55 -6 125 c-4
69 -12 388 -19 710 -11 536 -10 600 6 760 34 342 71 552 181 1015 170 716 213
1000 217 1457 3 260 -5 308 -16 98 -14 -267 -63 -622 -122 -895 -39 -179 -56
-244 -156 -595 -38 -135 -85 -308 -104 -384 -18 -77 -36 -141 -39 -144 -3 -3
-5 48 -5 114 0 189 -59 2046 -65 2052 -1 1 -5 -50 -9 -115z"/>
</g>
</svg>
